Coordinates
version=1
nRows=26
nColumns=24
inDegrees=yes

Units are S.I. units (second, meters, Newtons, ...)
Angles are in degrees.

endheader
time	pelvis_tilt	pelvis_list	pelvis_rotation	pelvis_tx	pelvis_ty	pelvis_tz	hip_flexion_r	hip_adduction_r	hip_rotation_r	knee_angle_r	ankle_angle_r	subtalar_angle_r	mtp_angle_r	hip_flexion_l	hip_adduction_l	hip_rotation_l	knee_angle_l	ankle_angle_l	subtalar_angle_l	mtp_angle_l	lumbar_extension	lumbar_bending	lumbar_rotation
      2.39000000	     -6.21073560	     -1.82631394	      1.81091395	      0.82545383	      1.26956894	     -0.89570669	     -1.10273437	      5.57098758	     -0.80039231	    -34.60597373	    -11.80690980	      4.45268259	     21.40293447	     24.13786829	      5.15047673	     11.24854632	    -10.88124561	    -11.20910504	    -20.18849485	      0.26500654	     -0.30522969	     -2.58033885	     -1.42948413
      2.39500000	     -6.31744699	     -1.66736828	      2.05095054	      0.83165714	      1.27039080	     -0.89663522	     -0.22028531	      5.03071653	     -1.85897363	    -36.12591486	    -13.50563179	      4.88825447	     19.54456387	     23.64201430	      5.43893360	     11.52625164	    -10.58461236	    -11.13030388	    -20.41237313	      0.33087956	     -0.17561076	     -2.82617010	     -1.66789680
      2.40000000	     -6.30025469	     -1.49937291	      2.26438187	      0.83752344	      1.27127260	     -0.89748998	      0.55946459	      4.45941482	     -2.88579858	    -37.64113104	    -15.04089055	      5.14888471	     18.19608638	     23.01670319	      5.71085243	     11.72324859	    -10.25537248	    -11.09855315	    -20.77164177	      0.31275859	     -0.25639533	     -3.03068062	     -1.82874082
      2.40500000	     -6.35265547	     -1.35060178	      2.42850950	      0.84339194	      1.27202705	     -0.89827588	      1.48878058	      3.90509073	     -3.80253683	    -39.28711332	    -16.42931302	      5.44099874	     15.60448112	     22.46451391	      5.92631698	     11.79427577	     -9.93045402	    -10.80671018	    -20.77927841	      0.53397748	     -0.21321242	     -3.23802827	     -1.91146697
      2.41000000	     -6.39319597	     -1.21751470	      2.62559340	      0.84909633	      1.27269519	     -0.89910552	      2.39602323	      3.36117167	     -4.65216519	    -40.87393706	    -17.62071114	      5.62995207	     13.19245609	     21.90674195	      6.14497206	     11.94939401	     -9.59548954	    -10.54584025	    -20.71079273	      0.50712084	     -0.19725397	     -3.42551166	     -2.09604589
      2.41500000	     -6.35222472	     -1.10058196	      2.82689504	      0.85463062	      1.27345266	     -0.89993538	      3.21766812	      2.88720175	     -5.35418660	    -42.37371143	    -18.58381006	      5.15621417	     11.50688611	     21.27015821	      6.33959730	     12.05176400	     -9.27246703	    -10.27307970	    -20.57487734	      0.55189902	     -0.28098078	     -3.61825364	     -2.19979333
      2.42000000	     -6.33925266	     -0.98144763	      3.02199282	      0.85999924	      1.27415987	     -0.90088042	      4.10237489	      2.38611022	     -6.06399313	    -43.90089876	    -18.97200694	      4.20811621	     11.11773427	     20.73414714	      6.55190501	     12.12776756	     -9.06960722	     -9.97594473	    -20.55197916	      0.56346786	     -0.33359200	     -3.78694705	     -2.34916822
      2.42500000	     -6.23949234	     -0.85271733	      3.15187334	      0.86523475	      1.27498829	     -0.90192659	      4.90536158	      1.88289495	     -6.65676500	    -45.36204384	    -19.34356111	      2.89971529	     10.19665568	     20.07773723	      6.74642850	     12.11638369	     -8.81098772	     -9.74443040	    -20.40845245	      0.43992404	     -0.47854637	     -3.92501186	     -2.33600322
      2.43000000	     -6.20158379	     -0.79486330	      3.31759562	      0.87039758	      1.27568939	     -0.90310541	      5.76014539	      1.46845753	     -7.21959191	    -46.70976250	    -19.33649302	      1.40585252	     10.07526624	     19.52681562	      6.90074530	     12.20217451	     -8.60620812	     -9.57420205	    -20.43798322	      0.40495281	     -0.55978575	     -3.96129273	     -2.48552971
      2.43500000	     -6.18614385	     -0.77960804	      3.45892806	      0.87545858	      1.27638247	     -0.90417943	      6.64708829	      1.14611264	     -7.66179999	    -47.95647593	    -19.21323146	     -0.08044666	      9.83917858	     18.97389385	      6.98402055	     12.23078792	     -8.33077233	     -9.34689687	    -20.36642525	      0.31975787	     -0.62347561	     -3.96582114	     -2.60642215
      2.44000000	     -6.12105068	     -0.75210111	      3.59866636	      0.88034703	      1.27707839	     -0.90514269	      7.52822709	      0.79076205	     -8.11044411	    -49.17720572	    -18.86264191	     -1.46161327	      9.52890952	     18.39857895	      7.06375562	     12.22520108	     -8.09605146	     -9.03742844	    -20.12443920	      0.23128209	     -0.74520945	     -4.00787869	     -2.68730489
      2.44500000	     -6.04128974	     -0.75941255	      3.69493660	      0.88522230	      1.27795460	     -0.90610042	      8.34674963	      0.51019180	     -8.52694257	    -50.20400958	    -18.50794805	     -3.32448740	      9.14259398	     17.75092704	      7.07608960	     12.25593483	     -7.75437002	     -8.95846798	    -19.91219638	      0.00372786	     -0.90155685	     -3.94550201	     -2.85004053
      2.45000000	     -5.91138754	     -0.75939346	      3.82371691	      0.89027973	      1.27880330	     -0.90713345	      9.04351755	      0.24606431	     -8.89277195	    -51.07101547	    -18.04497032	     -5.01945191	      8.66985356	     17.01886439	      7.09713492	     12.24962578	     -7.38744650	     -8.62138120	    -19.59615264	     -0.06711019	     -1.06649525	     -3.93470990	     -2.81977334
      2.45500000	     -5.77565958	     -0.77465399	      3.90074918	      0.89520640	      1.27964398	     -0.90814247	      9.72659353	      0.00085998	     -9.14951942	    -51.78509501	    -17.65825790	     -6.62886784	      8.11919996	     16.33666372	      7.09008618	     12.09161209	     -7.10962065	     -8.15792714	    -19.07649804	     -0.13518519	     -1.26340795	     -3.89106527	     -2.79118386
      2.46000000	     -5.82947305	     -0.80860849	      4.01359024	      0.90039699	      1.28037968	     -0.90905347	     10.57292516	     -0.20934508	     -9.41249796	    -52.39766292	    -17.08129956	     -8.10871059	      7.38260437	     15.81548661	      7.05426800	     11.87761703	     -6.76585841	     -7.82778381	    -18.35771038	     -0.21488143	     -1.34876763	     -3.78767606	     -2.98078544
      2.46500000	     -5.84709008	     -0.85136041	      4.11591163	      0.90557346	      1.28112539	     -0.90984017	     11.37631952	     -0.39036187	     -9.66274223	    -52.95157281	    -16.41106006	     -9.37822371	      6.63745057	     15.25443147	      6.98714364	     11.60371884	     -6.39467354	     -7.40651508	    -17.53612750	     -0.21010511	     -1.45923670	     -3.68657170	     -3.25222190
      2.47000000	     -5.81260289	     -0.91467685	      4.23751384	      0.91047366	      1.28188004	     -0.91080054	     12.14443343	     -0.53204886	     -9.85067976	    -53.42615049	    -15.43780535	    -10.01579370	      6.43959958	     14.64503375	      6.92380541	     11.54262925	     -5.99174979	     -7.37645985	    -17.22731246	     -0.25389017	     -1.58383388	     -3.55656300	     -3.44860679
      2.47500000	     -5.82988558	     -0.96422201	      4.26983130	      0.91526944	      1.28261112	     -0.91163288	     12.98899952	     -0.66652962	     -9.91972624	    -53.84270237	    -14.22572926	    -10.14035549	      5.91536708	     14.09126641	      6.84456500	     11.34876280	     -5.59555691	     -6.96097911	    -16.33461547	     -0.36400357	     -1.67739061	     -3.46379070	     -3.50312407
      2.48000000	     -5.89896009	     -0.97741228	      4.29711528	      0.91998354	      1.28318141	     -0.91246421	     13.91216216	     -0.81527993	     -9.91419471	    -54.23014630	    -13.02182643	    -10.38458322	      5.63297942	     13.63388919	      6.81492734	     11.21360938	     -5.24550404	     -6.71201571	    -15.92249261	     -0.30231737	     -1.74070733	     -3.39751291	     -3.63680413
      2.48500000	     -6.00503990	     -1.02737499	      4.36753082	      0.92470570	      1.28371040	     -0.91326266	     14.85227336	     -0.91287657	     -9.94924207	    -54.51934628	    -12.02397550	    -10.75816411	      5.37096003	     13.23834505	      6.76183350	     11.21920763	     -4.91720425	     -6.54113338	    -15.63659247	     -0.24054586	     -1.75682131	     -3.31885868	     -3.75586193
      2.49000000	     -6.05863346	     -1.09307915	      4.45993562	      0.92934642	      1.28422097	     -0.91400042	     15.69194932	     -0.93809745	     -9.91420716	    -54.67914453	    -10.87060688	    -11.31846625	      5.21500843	     12.78909531	      6.69212051	     11.27326392	     -4.58915676	     -6.44472084	    -15.37490355	     -0.20877459	     -1.83534347	     -3.21180543	     -3.93822915
      2.49500000	     -6.19328713	     -1.08919113	      4.46597911	      0.93392443	      1.28456192	     -0.91461241	     16.67465522	     -1.01676634	     -9.77390459	    -54.88300963	     -9.61434060	    -11.63478025	      4.98700922	     12.48929996	      6.68626163	     11.10680036	     -4.39274432	     -6.09350883	    -14.79098148	     -0.04694250	     -1.82979537	     -3.17791416	     -4.04159227
      2.50000000	     -6.26432453	     -1.18165645	      4.53653322	      0.93868123	      1.28509510	     -0.91532048	     17.48060994	     -0.94577695	     -9.66309552	    -54.79174811	     -8.50526893	    -11.98110675	      4.97018911	     12.08106951	      6.57747666	     10.97397326	     -4.14752534	     -5.71564274	    -14.16088897	      0.07505462	     -1.85776042	     -3.01739567	     -4.23936459
      2.50500000	     -6.31699797	     -1.24156127	      4.57364853	      0.94332237	      1.28561795	     -0.91610282	     18.30235849	     -0.87346463	     -9.44399716	    -54.72071682	     -7.65195428	    -12.18885582	      4.86004047	     11.62749756	      6.51210324	     10.92332147	     -3.83478291	     -5.58483322	    -13.97975312	      0.07658286	     -1.92738726	     -2.88118267	     -4.36239711
      2.51000000	     -6.45955981	     -1.22004391	      4.62809590	      0.94805738	      1.28584933	     -0.91672322	     19.21058757	     -0.93703568	     -9.25021513	    -54.62002772	     -6.64917264	    -11.81754316	      4.72445186	     11.33278146	      6.54013002	     10.80615831	     -3.66468039	     -5.20427579	    -13.50139557	      0.13849232	     -1.90008608	     -2.87501212	     -4.56936356
      2.51500000	     -6.55736847	     -1.27342205	      4.73815573	      0.95288549	      1.28616363	     -0.91718041	     19.98636957	     -0.84414768	     -9.03313819	    -54.33182378	     -5.60696491	    -11.74191043	      4.65185926	     10.98654654	      6.47381855	     10.67394525	     -3.47385229	     -4.81414021	    -12.92186766	      0.24220826	     -1.90364262	     -2.83550250	     -4.74306755
